<svg width="5076" height="904" viewBox="0 0 5076 904" fill="none" xmlns="http://www.w3.org/2000/svg">
<path fill-rule="evenodd" clip-rule="evenodd" d="M1158.71 442.812C1158.71 442.812 1425.25 650.093 1815.59 650.093C2205.93 650.093 2325.7 417.566 2763.6 442.627C3201.5 467.687 3431.27 596.368 3809.75 615.678C4545.88 653.236 5064.44 527.726 5064.44 527.726L4866.52 762.773L1043.51 700.493L1158.71 442.812Z" fill="white" fill-opacity="0.21"/>
<path fill-rule="evenodd" clip-rule="evenodd" d="M5052.46 351.101C5052.46 351.101 4821.88 582.429 4432.07 598.279C4042.27 614.129 4030.6 478.307 3594.99 521.114C3159.38 563.922 3162.14 638.395 2785.48 673.047C2618.91 688.372 2297.18 320.616 1668.33 530.901C1039.48 741.185 -0.000184474 204.552 -0.000184474 204.552L884.809 674.821L5052.18 700.493L5052.46 351.101Z" fill="white" fill-opacity="0.2"/>
<path fill-rule="evenodd" clip-rule="evenodd" d="M1158.71 516.316C1158.71 516.316 1238.04 654.662 1582.13 654.662C1926.22 654.662 2017.82 456.55 2403.84 481.61C2789.85 506.671 2992.4 635.351 3326.04 654.662C3974.95 692.22 4432.07 566.71 4432.07 566.71L4397.14 700.493L1123.17 674.821L1158.71 516.316Z" fill="white"/>
</svg>
